<?xml version="1.0" encoding="UTF-8"?>
<svg id="Layer_1" data-name="Layer 1" xmlns="http://www.w3.org/2000/svg" viewBox="0 0 492.66667 187.01969">
  <ellipse cx="46.39826" cy="82.61499" rx="46.39826" ry="70.87318" style="fill: #c2d837; stroke-width: 0px;"/>
  <g>
    <g>
      <path d="M42.94891,153.48817c-13.98581,0-24.63957-6.14205-31.96331-18.43093C3.66187,122.76996,0,105.31883,0,82.70225c0-11.24207,1.11725-21.27615,3.35175-30.09906,2.23399-8.8245,5.29481-16.27507,9.18548-22.35488,3.88865-6.07822,8.5223-10.68595,13.90247-13.82399,5.37815-3.13725,11.21239-4.70587,17.50221-4.70587,3.64065,0,6.95149.42607,9.93048,1.27501,2.97899.85133,5.58574,1.83192,7.82023,2.94097,2.23399,1.11224,4.09624,2.2548,5.58574,3.43166.0149.01176.02975.0235.04457.03521,1.84154,1.45574,2.69763,4.85613,2.005,7.91957-.73475,3.24976-1.69668,7.50435-2.53443,11.20971-.96822,4.28242-3.96178,6.51139-6.65539,4.90736-1.40154-.83461-2.8902-1.60362-4.4661-2.30661-3.51792-1.56862-7.50961-2.35214-11.9781-2.35214-2.9795,0-5.89636.78351-8.75161,2.35214-2.85474,1.56862-5.38017,4.08672-7.57173,7.5495-2.19359,3.46438-3.9528,7.94205-5.27561,13.43144-1.32433,5.49098-1.98599,12.15803-1.98599,20.00114,0,6.27449.43437,12.12611,1.30362,17.55007.86875,5.42555,2.2749,10.09791,4.21999,14.02027,1.94357,3.92076,4.48819,7.02769,7.63436,9.3128,3.14365,2.2899,6.95098,3.43246,11.41998,3.43246,2.81231,0,5.33724-.26011,7.57173-.78511,2.2345-.52021,4.22049-1.14256,5.95798-1.86224,1.738-.71649,3.26841-1.53511,4.59324-2.45107h0c1.9457-1.34343,4.20305.22219,4.89375,3.39415l2.35653,10.82204c.8446,3.8787-.26103,8.14807-2.58667,9.97227-2.28599,1.7931-5.04175,3.89426-7.27035,4.83186-4.96549,2.09043-10.71791,3.13725-17.25422,3.13725Z" style="fill: #c2d837; stroke-width: 0px;"/>
      <path d="M142.5012,98.97732c0,8.10642-.7445,15.52347-2.2345,22.25594-1.49,6.73407-3.64267,12.48516-6.45499,17.25486-2.81433,4.77289-6.18729,8.46546-10.11686,11.0793-3.93057,2.61224-8.33795,3.92076-13.21909,3.92076-4.80033,0-9.16629-1.30852-13.09585-3.92076-3.93158-2.61384-7.30454-6.30641-10.11686-11.0793-2.81383-4.7697-5.00741-10.52079-6.57823-17.25486-1.57334-6.73247-2.35875-14.14953-2.35875-22.25594,0-8.10482.80713-15.49155,2.42087-22.1586,1.61324-6.66705,3.84774-12.35271,6.70299-17.05858,2.85474-4.70587,6.24689-8.36493,10.17848-10.98196,3.92956-2.61224,8.21168-3.92076,12.84735-3.92076,4.71649,0,9.04001,1.30852,12.9716,3.92076,3.92956,2.61703,7.30252,6.27609,10.11585,10.98196,2.81231,4.70587,5.0064,10.39153,6.57924,17.05858,1.57081,6.66705,2.35875,14.05378,2.35875,22.1586ZM123.63324,98.97732c0-9.02078-1.13846-16.1107-3.41337-21.27615-2.27692-5.16225-5.52361-7.74578-9.7441-7.74578s-7.49041,2.58352-9.80673,7.74578c-2.31733,5.16545-3.47499,12.25537-3.47499,21.27615,0,9.01919,1.15766,16.17613,3.47499,21.47083,2.31632,5.2947,5.58624,7.94205,9.80673,7.94205s7.46718-2.64735,9.7441-7.94205c2.2749-5.2947,3.41337-12.45165,3.41337-21.47083Z" style="fill: #c2d837; stroke-width: 0px;"/>
      <path d="M197.17651,65.30577c-.57055,4.43428-3.30583,7.29519-6.11025,6.37363-.25495-.08378-.51392-.16802-.77692-.25273-2.23349-.71649-4.63466-1.07873-7.19948-1.07873-1.15968,0-2.54462.16596-4.15786.4899-.01616.00329-.03228.00658-.04835.00988-2.07298.42495-3.61351,3.24069-3.61351,6.5428v65.18272c0,4.5123-2.31562,8.17025-5.17207,8.17025h-8.15106c-2.85646,0-5.17207-3.65794-5.17207-8.17025V59.04426c0-3.61366,1.49429-6.79628,3.686-7.83148,2.42661-1.14615,5.10807-2.25154,8.0441-3.31705,4.5094-1.63245,9.53702-2.45107,15.08184-2.45107.993,0,2.19207.09894,3.59924.29521,1.40616.19628,2.81231.45958,4.22049.78351,1.40616.32872,2.81231.71968,4.22049,1.17766.01406.0046.0281.0092.04212.01382,2.01155.66206,3.27793,3.82983,2.86866,7.01065l-1.36134,10.58026Z" style="fill: #c2d837; stroke-width: 0px;"/>
      <path d="M269.85641,99.17359c0,7.97397-.62024,15.22985-1.86174,21.76445-1.2415,6.53939-3.06284,12.15803-5.46199,16.8639-2.40118,4.70587-5.38017,8.36652-8.93698,10.98036-3.55984,2.61384-7.65507,3.92236-12.28872,3.92236-2.56583,0-4.96499-.39255-7.19948-1.17607-2.2345-.78511-4.38717-1.89416-6.45499-3.33352v30.65438c0,4.5123-2.31562,8.17025-5.17207,8.17025h-8.15107c-2.85646,0-5.17207-3.65794-5.17207-8.17024l-.00004-121.41402c0-3.79693,1.64784-7.10114,3.98954-7.9573.55441-.2027,1.12772-.403,1.71999-.60101,2.15166-.71649,4.40737-1.33884,6.76511-1.86384,2.35875-.52021,4.7579-.94628,7.19948-1.27341,2.44057-.32553,4.77912-.4899,7.01361-.4899,5.37815,0,10.17848,1.27341,14.39897,3.82342,4.22049,2.54841,7.7773,6.14524,10.67548,10.78409,2.89515,4.64204,5.10843,10.29419,6.64086,16.96124,1.53041,6.66705,2.29612,14.11921,2.29612,22.35488ZM250.98845,99.95711c0-9.01919-1.28393-16.24155-3.84774-21.66711-2.56583-5.42396-6.37317-8.13833-11.41998-8.13833-1.65668,0-3.18608.09894-4.59223.29521-.01408.00196-.02814.00393-.04217.0059-1.94844.27348-3.43383,2.87422-3.43383,5.96427v42.19635c0,3.52209,1.41475,6.70541,3.54265,7.75703.31754.15693.64687.30731.98796.45115,1.86174.78351,3.74369,1.17607,5.64786,1.17607,8.7703,0,13.15747-9.34472,13.15747-28.04054Z" style="fill: #c2d837; stroke-width: 0px;"/>
      <path d="M281.02688,99.95711c0-9.14844.88794-17.15752,2.66887-24.02084,1.7779-6.86333,4.11543-12.57931,7.0126-17.15752,2.89616-4.57342,6.22568-8.03939,9.99261-10.39153,3.76491-2.35373,7.63386-3.5298,11.60585-3.5298,9.2673,0,16.59104,4.47927,21.97121,13.43144,5.37815,8.95536,8.06823,22.12669,8.06823,39.5108,0,1.70107-.04243,3.56331-.12425,5.58832l-.00249.06082c-.12255,2.99922-1.69823,5.33282-3.6008,5.33282h-30.32901c-4.79585.00002-6.91687,9.77449-3.02783,14.20762.03118.03555.0625.07097.09396.10627,3.14365,3.5298,7.36414,5.2947,12.66148,5.2947,3.39215,0,6.72268-.49149,9.99261-1.47128.93369-.27994,1.81847-.57851,2.65433-.89578,2.91936-1.10811,5.82999,1.84297,6.31972,6.52239l.87648,8.37492c.39144,3.74027-1.03586,7.35814-3.33391,8.45068h0c-1.65668.78352-3.49721,1.46969-5.52361,2.05852-2.02943.58883-4.2013,1.07873-6.51661,1.47128-2.31834.39096-4.63567.58724-6.95199.58724-5.87616,0-10.9856-1.37235-15.32934-4.11704-4.34474-2.74469-7.94499-6.50109-10.79973-11.27558-2.85474-4.7697-4.96499-10.42345-6.33074-16.96124-1.36575-6.5346-2.04762-13.5942-2.04762-21.17721ZM320.19973,88.78047c2.3746,0,4.165-3.59407,3.47898-7.18525-.0045-.02355-.00902-.04709-.01355-.07063-.45559-2.35214-1.15968-4.44257-2.11025-6.27449-.95259-1.82873-2.15267-3.33352-3.60025-4.50959-1.44858-1.17607-3.24871-1.7649-5.39936-1.7649-2.06984,0-3.84774.55692-5.33774,1.66756-1.48899,1.11064-2.73049,2.58193-3.72349,4.41066-.993,1.83192-1.75972,3.95587-2.29612,6.37343-.00539.02421-.01077.04842-.01614.07263-.79,3.5656.95154,7.28059,3.34296,7.28059h15.67495Z" style="fill: #c2d837; stroke-width: 0px;"/>
      <path d="M414.21784,141.10715c0,3.79707-1.64798,7.10155-3.9898,7.95751-.5547.20275-1.12824.40282-1.7207.6001-2.15267.71968-4.40636,1.33884-6.76511,1.86384-2.35774.52021-4.75891.94628-7.19948,1.27341-2.44158.32553-4.77811.4899-7.0126.4899-5.38017,0-10.17848-1.24309-14.39897-3.72448s-7.77932-6.04471-10.67548-10.68675c-2.89818-4.63885-5.11045-10.26068-6.64086-16.8639-1.53243-6.60003-2.29612-14.02027-2.29612-22.25594,0-8.36333.66065-15.91283,1.98599-22.6469,1.32231-6.73247,3.22749-12.45165,5.70948-17.15752,2.483-4.70747,5.52361-8.3011,9.12386-10.78568,3.59924-2.48139,7.71568-3.72608,12.35034-3.72608,2.56482,0,4.86094.39255,6.88936,1.17766.02027.00784.04055.0157.06083.0236,2.92128,1.1382,6.08404-.9138,6.08404-4.04898V10.24608c0-4.01079,1.84294-7.42849,4.34962-8.06628l8.15106-2.07393c3.14409-.79997,5.99453,3.03559,5.99453,8.06628v132.935ZM372.38568,98.38848c0,9.02078,1.28191,16.27507,3.84875,21.76605,2.56381,5.48938,6.37114,8.23567,11.41998,8.23567,1.65365,0,3.18406-.09894,4.59223-.29521.01406-.00196.0281-.00393.04211-.0059,1.94838-.27377,3.43389-2.8737,3.43389-5.96367v-42.58841c0-3.52218-1.41475-6.70589-3.5428-7.75712-.31745-.15682-.64671-.30701-.98781-.45056-1.86275-.78511-3.74571-1.17766-5.64786-1.17766-8.77333,0-13.15848,9.41334-13.15848,28.23682Z" style="fill: #c2d837; stroke-width: 0px;"/>
      <path d="M492.66667,98.97732c0,8.10642-.74551,15.52347-2.2345,22.25594-1.49,6.73407-3.64267,12.48516-6.45499,17.25486-2.81433,4.77289-6.18729,8.46546-10.11686,11.0793-3.93158,2.61224-8.33795,3.92076-13.21909,3.92076-4.80033,0-9.16629-1.30852-13.09585-3.92076-3.93158-2.61384-7.30454-6.30641-10.11686-11.0793-2.81433-4.7697-5.00741-10.52079-6.57924-17.25486-1.57284-6.73247-2.35774-14.14953-2.35774-22.25594,0-8.10482.80612-15.49155,2.42037-22.1586,1.61324-6.66705,3.84774-12.35271,6.70248-17.05858,2.85575-4.70587,6.2479-8.36493,10.17848-10.98196,3.92956-2.61224,8.21269-3.92076,12.84836-3.92076,4.71649,0,9.04001,1.30852,12.97059,3.92076,3.92956,2.61703,7.30252,6.27609,10.11686,10.98196,2.81231,4.70587,5.0064,10.39153,6.57924,17.05858,1.57081,6.66705,2.35875,14.05378,2.35875,22.1586ZM473.7987,98.97732c0-9.02078-1.13846-16.1107-3.41337-21.27615-2.27692-5.16225-5.52462-7.74578-9.7441-7.74578-4.22049,0-7.49142,2.58352-9.80673,7.74578-2.31733,5.16545-3.476,12.25537-3.476,21.27615,0,9.01919,1.15867,16.17613,3.476,21.47083,2.31531,5.2947,5.58624,7.94205,9.80673,7.94205,4.21948,0,7.46718-2.64735,9.7441-7.94205,2.2749-5.2947,3.41337-12.45165,3.41337-21.47083Z" style="fill: #c2d837; stroke-width: 0px;"/>
    </g>
    <g>
      <path d="M42.94891,153.48817c-13.98581,0-24.63957-6.14205-31.96331-18.43093C3.66187,122.76996,0,105.31883,0,82.70225c0-11.24207,1.11725-21.27615,3.35175-30.09906,2.23399-8.8245,5.29481-16.27507,9.18548-22.35488,3.88865-6.07822,8.5223-10.68595,13.90247-13.82399,5.37815-3.13725,11.21239-4.70587,17.50221-4.70587,3.64065,0,6.95149.42607,9.93048,1.27501,2.97899.85133,5.58574,1.83192,7.82023,2.94097,2.23399,1.11224,4.09624,2.2548,5.58574,3.43166.0149.01176.02975.0235.04457.03521,1.84154,1.45574,2.69763,4.85613,2.005,7.91957-.73475,3.24976-1.69668,7.50435-2.53443,11.20971-.96822,4.28242-3.96178,6.51139-6.65539,4.90736-1.40154-.83461-2.8902-1.60362-4.4661-2.30661-3.51792-1.56862-7.50961-2.35214-11.9781-2.35214-2.9795,0-5.89636.78351-8.75161,2.35214-2.85474,1.56862-5.38017,4.08672-7.57173,7.5495-2.19359,3.46438-3.9528,7.94205-5.27561,13.43144-1.32433,5.49098-1.98599,12.15803-1.98599,20.00114,0,6.27449.43437,12.12611,1.30362,17.55007.86875,5.42555,2.2749,10.09791,4.21999,14.02027,1.94357,3.92076,4.48819,7.02769,7.63436,9.3128,3.14365,2.2899,6.95098,3.43246,11.41998,3.43246,2.81231,0,5.33724-.26011,7.57173-.78511,2.2345-.52021,4.22049-1.14256,5.95798-1.86224,1.738-.71649,3.26841-1.53511,4.59324-2.45107h0c1.9457-1.34343,4.20305.22219,4.89375,3.39415l2.35653,10.82204c.8446,3.8787-.26103,8.14807-2.58667,9.97227-2.28599,1.7931-5.04175,3.89426-7.27035,4.83186-4.96549,2.09043-10.71791,3.13725-17.25422,3.13725Z" style="fill: #496db5; stroke-width: 0px;"/>
      <path d="M142.5012,98.97732c0,8.10642-.7445,15.52347-2.2345,22.25594-1.49,6.73407-3.64267,12.48516-6.45499,17.25486-2.81433,4.77289-6.18729,8.46546-10.11686,11.0793-3.93057,2.61224-8.33795,3.92076-13.21909,3.92076-4.80033,0-9.16629-1.30852-13.09585-3.92076-3.93158-2.61384-7.30454-6.30641-10.11686-11.0793-2.81383-4.7697-5.00741-10.52079-6.57823-17.25486-1.57334-6.73247-2.35875-14.14953-2.35875-22.25594,0-8.10482.80713-15.49155,2.42087-22.1586,1.61324-6.66705,3.84774-12.35271,6.70299-17.05858,2.85474-4.70587,6.24689-8.36493,10.17848-10.98196,3.92956-2.61224,8.21168-3.92076,12.84735-3.92076,4.71649,0,9.04001,1.30852,12.9716,3.92076,3.92956,2.61703,7.30252,6.27609,10.11585,10.98196,2.81231,4.70587,5.0064,10.39153,6.57924,17.05858,1.57081,6.66705,2.35875,14.05378,2.35875,22.1586ZM123.63324,98.97732c0-9.02078-1.13846-16.1107-3.41337-21.27615-2.27692-5.16225-5.52361-7.74578-9.7441-7.74578s-7.49041,2.58352-9.80673,7.74578c-2.31733,5.16545-3.47499,12.25537-3.47499,21.27615,0,9.01919,1.15766,16.17613,3.47499,21.47083,2.31632,5.2947,5.58624,7.94205,9.80673,7.94205s7.46718-2.64735,9.7441-7.94205c2.2749-5.2947,3.41337-12.45165,3.41337-21.47083Z" style="fill: #496db5; stroke-width: 0px;"/>
      <path d="M197.17651,65.30577c-.57055,4.43428-3.30583,7.29519-6.11025,6.37363-.25495-.08378-.51392-.16802-.77692-.25273-2.23349-.71649-4.63466-1.07873-7.19948-1.07873-1.15968,0-2.54462.16596-4.15786.4899-.01616.00329-.03228.00658-.04835.00988-2.07298.42495-3.61351,3.24069-3.61351,6.5428v65.18272c0,4.5123-2.31562,8.17025-5.17207,8.17025h-8.15106c-2.85646,0-5.17207-3.65794-5.17207-8.17025V59.04426c0-3.61366,1.49429-6.79628,3.686-7.83148,2.42661-1.14615,5.10807-2.25154,8.0441-3.31705,4.5094-1.63245,9.53702-2.45107,15.08184-2.45107.993,0,2.19207.09894,3.59924.29521,1.40616.19628,2.81231.45958,4.22049.78351,1.40616.32872,2.81231.71968,4.22049,1.17766.01406.0046.0281.0092.04212.01382,2.01155.66206,3.27793,3.82983,2.86866,7.01065l-1.36134,10.58026Z" style="fill: #496db5; stroke-width: 0px;"/>
      <path d="M269.85641,99.17359c0,7.97397-.62024,15.22985-1.86174,21.76445-1.2415,6.53939-3.06284,12.15803-5.46199,16.8639-2.40118,4.70587-5.38017,8.36652-8.93698,10.98036-3.55984,2.61384-7.65507,3.92236-12.28872,3.92236-2.56583,0-4.96499-.39255-7.19948-1.17607-2.2345-.78511-4.38717-1.89416-6.45499-3.33352v30.65438c0,4.5123-2.31562,8.17025-5.17207,8.17025h-8.15107c-2.85646,0-5.17207-3.65794-5.17207-8.17024l-.00004-121.41402c0-3.79693,1.64784-7.10114,3.98954-7.9573.55441-.2027,1.12772-.403,1.71999-.60101,2.15166-.71649,4.40737-1.33884,6.76511-1.86384,2.35875-.52021,4.7579-.94628,7.19948-1.27341,2.44057-.32553,4.77912-.4899,7.01361-.4899,5.37815,0,10.17848,1.27341,14.39897,3.82342,4.22049,2.54841,7.7773,6.14524,10.67548,10.78409,2.89515,4.64204,5.10843,10.29419,6.64086,16.96124,1.53041,6.66705,2.29612,14.11921,2.29612,22.35488ZM250.98845,99.95711c0-9.01919-1.28393-16.24155-3.84774-21.66711-2.56583-5.42396-6.37317-8.13833-11.41998-8.13833-1.65668,0-3.18608.09894-4.59223.29521-.01408.00196-.02814.00393-.04217.0059-1.94844.27348-3.43383,2.87422-3.43383,5.96427v42.19635c0,3.52209,1.41475,6.70541,3.54265,7.75703.31754.15693.64687.30731.98796.45115,1.86174.78351,3.74369,1.17607,5.64786,1.17607,8.7703,0,13.15747-9.34472,13.15747-28.04054Z" style="fill: #496db5; stroke-width: 0px;"/>
      <path d="M281.02688,99.95711c0-9.14844.88794-17.15752,2.66887-24.02084,1.7779-6.86333,4.11543-12.57931,7.0126-17.15752,2.89616-4.57342,6.22568-8.03939,9.99261-10.39153,3.76491-2.35373,7.63386-3.5298,11.60585-3.5298,9.2673,0,16.59104,4.47927,21.97121,13.43144,5.37815,8.95536,8.06823,22.12669,8.06823,39.5108,0,1.70107-.04243,3.56331-.12425,5.58832l-.00249.06082c-.12255,2.99922-1.69823,5.33282-3.6008,5.33282h-30.32901c-4.79585.00002-6.91687,9.77449-3.02783,14.20762.03118.03555.0625.07097.09396.10627,3.14365,3.5298,7.36414,5.2947,12.66148,5.2947,3.39215,0,6.72268-.49149,9.99261-1.47128.93369-.27994,1.81847-.57851,2.65433-.89578,2.91936-1.10811,5.82999,1.84297,6.31972,6.52239l.87648,8.37492c.39144,3.74027-1.03586,7.35814-3.33391,8.45068h0c-1.65668.78352-3.49721,1.46969-5.52361,2.05852-2.02943.58883-4.2013,1.07873-6.51661,1.47128-2.31834.39096-4.63567.58724-6.95199.58724-5.87616,0-10.9856-1.37235-15.32934-4.11704-4.34474-2.74469-7.94499-6.50109-10.79973-11.27558-2.85474-4.7697-4.96499-10.42345-6.33074-16.96124-1.36575-6.5346-2.04762-13.5942-2.04762-21.17721ZM320.19973,88.78047c2.3746,0,4.165-3.59407,3.47898-7.18525-.0045-.02355-.00902-.04709-.01355-.07063-.45559-2.35214-1.15968-4.44257-2.11025-6.27449-.95259-1.82873-2.15267-3.33352-3.60025-4.50959-1.44858-1.17607-3.24871-1.7649-5.39936-1.7649-2.06984,0-3.84774.55692-5.33774,1.66756-1.48899,1.11064-2.73049,2.58193-3.72349,4.41066-.993,1.83192-1.75972,3.95587-2.29612,6.37343-.00539.02421-.01077.04842-.01614.07263-.79,3.5656.95154,7.28059,3.34296,7.28059h15.67495Z" style="fill: #496db5; stroke-width: 0px;"/>
      <path d="M414.21784,141.10715c0,3.79707-1.64798,7.10155-3.9898,7.95751-.5547.20275-1.12824.40282-1.7207.6001-2.15267.71968-4.40636,1.33884-6.76511,1.86384-2.35774.52021-4.75891.94628-7.19948,1.27341-2.44158.32553-4.77811.4899-7.0126.4899-5.38017,0-10.17848-1.24309-14.39897-3.72448s-7.77932-6.04471-10.67548-10.68675c-2.89818-4.63885-5.11045-10.26068-6.64086-16.8639-1.53243-6.60003-2.29612-14.02027-2.29612-22.25594,0-8.36333.66065-15.91283,1.98599-22.6469,1.32231-6.73247,3.22749-12.45165,5.70948-17.15752,2.483-4.70747,5.52361-8.3011,9.12386-10.78568,3.59924-2.48139,7.71568-3.72608,12.35034-3.72608,2.56482,0,4.86094.39255,6.88936,1.17766.02027.00784.04055.0157.06083.0236,2.92128,1.1382,6.08404-.9138,6.08404-4.04898V10.24608c0-4.01079,1.84294-7.42849,4.34962-8.06628l8.15106-2.07393c3.14409-.79997,5.99453,3.03559,5.99453,8.06628v132.935ZM372.38568,98.38848c0,9.02078,1.28191,16.27507,3.84875,21.76605,2.56381,5.48938,6.37114,8.23567,11.41998,8.23567,1.65365,0,3.18406-.09894,4.59223-.29521.01406-.00196.0281-.00393.04211-.0059,1.94838-.27377,3.43389-2.8737,3.43389-5.96367v-42.58841c0-3.52218-1.41475-6.70589-3.5428-7.75712-.31745-.15682-.64671-.30701-.98781-.45056-1.86275-.78511-3.74571-1.17766-5.64786-1.17766-8.77333,0-13.15848,9.41334-13.15848,28.23682Z" style="fill: #496db5; stroke-width: 0px;"/>
      <path d="M492.66667,98.97732c0,8.10642-.74551,15.52347-2.2345,22.25594-1.49,6.73407-3.64267,12.48516-6.45499,17.25486-2.81433,4.77289-6.18729,8.46546-10.11686,11.0793-3.93158,2.61224-8.33795,3.92076-13.21909,3.92076-4.80033,0-9.16629-1.30852-13.09585-3.92076-3.93158-2.61384-7.30454-6.30641-10.11686-11.0793-2.81433-4.7697-5.00741-10.52079-6.57924-17.25486-1.57284-6.73247-2.35774-14.14953-2.35774-22.25594,0-8.10482.80612-15.49155,2.42037-22.1586,1.61324-6.66705,3.84774-12.35271,6.70248-17.05858,2.85575-4.70587,6.2479-8.36493,10.17848-10.98196,3.92956-2.61224,8.21269-3.92076,12.84836-3.92076,4.71649,0,9.04001,1.30852,12.97059,3.92076,3.92956,2.61703,7.30252,6.27609,10.11686,10.98196,2.81231,4.70587,5.0064,10.39153,6.57924,17.05858,1.57081,6.66705,2.35875,14.05378,2.35875,22.1586ZM473.7987,98.97732c0-9.02078-1.13846-16.1107-3.41337-21.27615-2.27692-5.16225-5.52462-7.74578-9.7441-7.74578-4.22049,0-7.49142,2.58352-9.80673,7.74578-2.31733,5.16545-3.476,12.25537-3.476,21.27615,0,9.01919,1.15867,16.17613,3.476,21.47083,2.31531,5.2947,5.58624,7.94205,9.80673,7.94205,4.21948,0,7.46718-2.64735,9.7441-7.94205,2.2749-5.2947,3.41337-12.45165,3.41337-21.47083Z" style="fill: #496db5; stroke-width: 0px;"/>
    </g>
  </g>
</svg>