<?xml version="1.0" encoding="UTF-8"?>
<svg id="Layer_1" data-name="Layer 1" xmlns="http://www.w3.org/2000/svg" viewBox="0 0 499.66667 494.81481">
  <g>
    <path d="M251.38066,425.18076c3.74658,22.92847,7.49312,45.85697,11.37838,69.63406h-25.6104c3.70447-23.64416,7.3241-46.74668,10.94395-69.85034-.60218,1.20634-1.34251,2.41132-1.84516,3.74121-3.48514,9.22075-6.76646,18.55311-10.41127,27.68426-4.62154,11.57801-10.9934,21.73944-19.04127,30.34644-.77717.83115-2.70269,1.23535-3.58834.69126-6.97845-4.2874-13.83385-8.85336-20.72634-13.33527-.70825-.46054-1.41116-.9326-2.38675-1.57809,27.36589-18.72934,48.70345-43.25841,57.93404-80.0607-.63604.8873-1.29942,1.74946-1.90367,2.66587-4.24407,6.43666-8.09084,13.30901-12.79352,19.23865-9.24025,11.6512-20.41513,20.42596-32.51753,27.42009-7.29978,4.21867-14.94843,7.59109-22.32132,11.64452-3.10401,1.70652-4.99942.45075-6.49904-2.47002-2.29692-4.47379-4.41686-9.07342-6.64674-13.59577-.80303-1.62857-1.70667-3.1882-2.72946-5.08559,16.36065-8.9721,32.48086-17.83082,48.62079-26.63939,1.96078-1.07011,3.1312-2.32575,3.47678-5.19601.95821-7.95858,2.83141-15.79182,3.45546-23.77106.68234-8.72433-2.87306-15.78529-8.28383-21.59284-3.61985-3.88529-6.99898-8.11072-10.79382-11.73578-13.09213-12.50648-28.49612-19.64674-44.41951-25.04857-24.84675-8.429-50.0036-15.61556-74.74429-24.43846-11.27081-4.01938-22.02548-10.28181-32.72116-16.25613-15.38651-8.59452-28.55741-20.98887-40.63784-35.02614-.84702-.98423-1.51992-2.17672-2.27379-3.27237-.27895.28235-.55791.5647-.83687.84704,4.45564,6.05972,8.68957,12.37411,13.42863,18.10828,4.83986,5.8561,9.88371,11.59168,15.37567,16.55323,5.5785,5.03971,11.6518,9.41221,17.80623,13.44517,6.02935,3.951,12.43387,7.10619,19.10521,10.85301-11.32159-1.74642-22.1588-3.42432-32.99781-5.08601-2.97774-.45654-5.98499-1.3643-8.93528-1.16623-3.55608.23877-5.07662-1.75731-6.43121-5.15128-4.11365-10.30679-8.62122-20.39844-12.62071-30.76407-2.93854-7.61595-5.3195-15.53094-8.18887-24.02271,10.45248,0,19.94321-.02666,29.43331.05313.71975.00606,1.59231.5808,2.12799,1.2072,5.66605,6.62547,10.92251,13.80925,16.98618,19.87431,9.72972,9.73186,20.98424,16.6986,32.73168,22.51943,1.61145.79845,3.21906,1.6077,4.98579,2.15051-14.53286-12.00684-24.39467-28.88957-35.3098-45.55188h34.37532c3.34094,8.91779,6.01539,17.94646,9.94336,26.13991,7.69312,16.04725,18.86884,28.2258,32.72862,36.77624,6.69787,4.13209,13.63595,7.72306,20.75577,10.94671-25.58566-15.667-37.54281-42.40298-44.67782-74.11252,8.75861,0,16.91703-.04319,25.07386.06977.77801.01075,1.76254.79397,2.2827,1.56438,2.66415,3.94581,5.11239,8.09608,7.80944,12.0088,11.9489,17.3348,26.52606,30.76627,43.44529,40.80047,8.50226,5.04242,17.06705,10.1767,26.54784,11.48402,6.6935.92296,13.68838.59051,20.34564-.67096,3.2322-.6125,6.45721-4.171,8.7813-7.32258,1.15064-1.56028,1.12498-5.86801.09534-7.78713-1.90319-3.54714-5.11797-6.20717-9.06263-5.44952-2.48332.477-4.82447,1.98267-7.20032,3.01426-.81571-5.34329.92425-9.03646,5.33911-11.60865,1.66877-.97224,3.46057-2.16392,4.59014-3.82753,8.39268-12.36048,27.45216-10.50048,32.24982,4.17269,1.26997,3.88391,2.81959,7.72142,3.55251,11.75411,2.57905,14.19046,12.35582,17.95218,22.28057,17.15884,8.55575-.68393,16.25881-4.54587,23.77146-9.00615,11.91468-7.07375,23.38201-15.03638,32.88578-26.23577,6.321-7.44878,12.21277-15.4063,18.24181-23.19515,1.41989-1.83434,2.55021-3.97911,3.95802-5.82834.46623-.61236,1.38329-1.04532,2.09756-1.0519,7.93351-.07295,15.86768-.04597,24.17953-.04597-6.63078,31.56127-18.70971,58.07486-44.09853,73.83384,1.30189-.51191,2.60784-1.01006,3.90462-1.53939,1.47219-.60091,2.97569-1.1241,4.39762-1.8629,12.47457-6.48137,23.98705-14.54597,33.49876-26.39386,8.53837-10.6356,15.04326-22.46955,18.23797-36.71422.38465-1.71483,1.04847-3.41853,1.8829-4.89115.57867-1.0212,1.66498-2.31697,2.53698-2.33011,10.58928-.15953,21.1809-.10352,32.70538-.10352-10.1705,17.47333-20.85812,33.26218-34.67281,46.05928,3.45559-1.72555,6.98359-3.27546,10.3539-5.20776,12.97541-7.43931,25.08143-16.48292,35.66705-28.10761,2.616-2.87283,4.53872-6.60591,6.95625-9.75571.96482-1.25706,2.3916-2.82442,3.63317-2.85545,9.49367-.23728,18.99361-.1302,29.31822-.1302-2.78709,8.48947-5.09583,16.54206-8.04441,24.25466-4.01954,10.51402-8.54618,20.7578-12.81556,31.14021-1.66123,4.03989-4.74487,4.31552-7.99868,4.77144-13.44579,1.88395-26.8719,3.96347-41.20173,6.10512,27.44529-12.77041,50.16082-31.37863,66.59456-60.2115-.729.40359-1.39278.52731-1.71521.98518-8.27481,11.7513-18.42031,20.87289-29.24216,29.05712-16.56753,12.52956-34.48854,21.51559-53.37243,27.78319-24.77946,8.22438-49.80647,15.47008-74.40522,24.37267-16.16788,5.85137-31.63565,14.24521-43.5756,29.22659-4.19447,5.26289-8.77958,10.59848-11.45308,16.91971-3.80214,8.98988-.80087,18.51677,1.33717,27.64891.21193.90521.86521,1.75822.85639,2.62904-.05763,5.68905,3.23202,7.80041,6.97768,9.80754,11.21192,6.00811,22.35227,12.20215,33.51428,18.33945,3.68502,2.02616,7.35091,4.10046,11.19653,6.24824-1.97396,8.53131-6.67196,14.94327-10.84645,21.6826-.33398.53917-1.75326.5542-2.51136.25699-12.79144-5.01455-24.84128-11.83118-36.27394-20.29389-12.51963-9.26735-23.01958-20.97917-31.75431-34.95678-1.19227-1.90794-2.09121-4.07067-3.81877-5.79856,1.37809,4.57621,2.63646,9.20968,4.18238,13.70569.83399,2.42559,2.23113,4.57301,3.25297,6.91927,8.30824,19.07599,20.37214,34.22341,35.08789,46.56915,4.96403,4.16458,10.06026,8.11014,15.97518,12.86204-5.82355,3.95432-11.34183,7.70639-16.8676,11.44326-.40934.27683-.87319.441-1.30974.66272-7.70963,3.91559-7.64512,3.84921-13.15422-3.55912-9.06925-12.19568-15.96954-25.89654-21.01087-40.96219-1.73117-5.17342-3.73957-10.21789-5.62133-15.32129-.08947-.00655-.17894-.01313-.26837-.01968ZM366.4364,243.79217c-3.40144,6.34486-6.7516,12.70048-10.19229,18.98721-5.28734,9.6611-11.57166,18.36055-19.19477,25.52232-7.94824,7.46715-15.97342,14.87577-24.36345,21.62105-12.5244,10.06908-26.14736,18.14775-37.45669,30.44049-5.33713,5.80118-8.87765,12.65266-10.81594,20.35316-3.37035,13.38962,2.16344,24.11089,9.40076,33.64923,2.25362,2.9701,5.38259,5.01697,8.65227,7.97659-3.46997-5.52649-7.14207-9.85812-9.2604-15.06781-4.26092-10.47889-3.49179-20.55107,2.35411-30.63775,6.796-11.72604,16.35317-19.29168,25.88878-27.0662,7.95608-6.4867,16.38272-12.21013,24.09896-19.05787,12.60478-11.18601,23.42473-24.4526,31.0254-41.00089.17056-.37134.33623-.75476.55623-1.08425,4.90362-7.3434,6.62147-16.2681,9.30701-24.63526ZM217.22209,401.8952c1.54504-1.12875,3.23912-2.05337,4.59986-3.43449,1.99771-2.02759,3.69907-4.45456,5.62757-6.5844,10.71571-11.83451,10.69525-32.84791,1.82972-45.62474-7.60715-10.96327-17.75016-18.43464-27.8149-25.75259-13.43712-9.76996-27.02889-19.33995-38.81126-31.75056-10.08163-10.61917-18.96858-22.67223-25.28306-37.02992-1.22856-2.79345-2.75662-5.40381-4.5942-8.96659.23675,1.56984.21219,2.17164.41453,2.63609,4.48303,10.29104,8.62809,20.81766,13.58176,30.78535,6.98394,14.05299,16.75853,25.31357,27.92399,34.74275,11.56727,9.7685,23.51815,18.90368,35.1444,28.57777,6.6758,5.55487,12.56962,12.13855,16.12934,21.08348.75967,1.90888,1.11442,4.07194,2.01605,5.86622,2.35636,4.68904,2.12834,9.84141.56271,14.25906-2.70856,7.64245-5.0022,15.90426-11.32653,21.19258ZM239.52044,268.9402c4.86676,4.57836,5.90332-2.53916,9.15184-1.14058-.1128-.47624-.22564-.95249-.33844-1.42871-2.64647.7715-5.29294,1.543-8.8134,2.56928Z" style="fill: #000; stroke-width: 0px;"/>
    <path d="M438.71244,348.60191c-5.88542,6.2172-10.718,11.48506-15.74571,16.47985-.88153.87578-2.69731,1.14154-3.88729.78564-22.44461-6.71299-45.2669-10.31516-68.37931-10.74459-20.502-.38095-40.75499,2.36581-60.45616,9.50958-.43964.15942-.84316.45714-1.21573,1.28931,1.52445-.17896,3.04748-.37682,4.57369-.53161,1.55695-.15788,3.11526-.33427,4.67604-.39803,12.85728-.52553,25.72342-1.62774,38.571-1.3859,16.73663.31511,33.31342,2.89266,49.09793,9.94985,5.42907,2.42731,10.51745,5.91394,16.74215,9.47818-6.53641,4.72463-11.93893,8.82459-17.53367,12.52015-1.21648.8035-3.26809.66945-4.6875.10384-23.67674-9.43475-47.96087-14.0416-72.95137-12.53403-7.35051.44344-14.65393,1.97259-21.93464,3.4257,27.61038,1.52327,55.18787,2.55309,79.91961,19.49986.03907.46112.07814.92221.11716,1.3833-5.76707,2.87179-11.81745,5.15198-17.23355,8.75664-7.75787,5.16323-13.75256-.09706-20.05403-3.54444-14.66328-8.02203-29.23131-16.28756-43.77937-24.59709-.98423-.56213-2.01643-2.25321-2.1186-3.52094-.91067-11.29523,3.86194-19.58064,10.6848-26.57173,3.96376-4.06147,7.9687-8.12215,12.26502-11.66007,3.50811-2.88876,7.3372-5.40182,11.29248-7.30652,2.30989-1.11232,5.14355-.87867,7.74751-.94994,20.19677-.55292,40.40967-1.79568,60.58726-1.25458,12.51695.33565,25.03142,3.04774,37.44487,5.43179,5.19743.99821,10.13046,3.91008,16.2574,6.38576Z" style="fill: #000; stroke-width: 0px;"/>
    <path d="M61.65832,349.32358c9.53607-6.78484,19.9506-8.95679,30.41642-10.52729,25.40871-3.81279,50.89048-3.24794,76.37931-1.12217,4.17632.34831,8.37449.32572,12.55337.64299,1.1536.08757,2.3514.60288,3.39752,1.22773,9.13391,5.45542,17.42425,12.12303,24.58896,20.98216,5.51517,6.81946,8.43404,14.26647,7.75606,23.53931-.11694,1.59927-1.13003,3.84375-2.26264,4.48931-10.99292,6.26536-22.10452,12.2407-33.17192,18.32494-6.62529,3.64225-13.20705,7.39674-19.87059,10.93814-1.19481.63498-2.88305,1.08227-4.02075.58661-7.95983-3.46771-15.83482-7.20605-24.69825-11.30201,4.39014-2.78404,7.86626-5.47523,11.64426-7.29583,12.97991-6.25499,26.59061-9.53906,40.52951-10.86169,9.77073-.92715,19.56445-1.51737,29.44183-2.80455-7.45586-1.04022-14.89031-2.59312-22.37146-3.02689-24.87473-1.44233-49.06217,3.02203-72.62365,12.53107-1.63151.65846-4.04617.27275-5.59075-.72066-5.44122-3.4995-10.66173-7.47589-16.12321-11.38386,11.3265-9.49292,24.08223-13.90568,37.30811-16.70961,15.0911-3.1993,30.35265-4.01335,45.64207-3.3445,9.11923.39892,18.2148,1.54019,27.32257,2.32269,1.02085.08773,2.05181.01188,4.06582.01188-12.53661-5.10366-24.48064-8.17674-36.66697-9.13084-12.09307-.9468-24.31398-1.78211-36.36529-.77628-15.65196,1.30633-31.20221,4.39059-46.77268,6.91179-4.01394.64993-7.91713,2.21242-11.91997,3.01909-1.17075.23591-2.81609-.25946-3.72096-1.15448-4.94597-4.89218-9.72897-10.0133-14.86672-15.36704Z" style="fill: #000; stroke-width: 0px;"/>
    <path d="M49.34455,334.48934c-6.43927-9.60194-12.78197-19.05987-19.72541-29.41361,4.45199-.81376,8.05197-2.09637,11.62972-2.01522,13.79659.31296,27.62454.52561,41.36063,1.89391,6.07256.60494,11.91949,4.03261,17.92791,5.91711,21.04233,6.59971,42.12545,13.01904,63.15725,19.66455,4.82235,1.52374,9.50165,3.67677,14.13816,5.88228-14.04468-3.23114-28.04169-6.79539-42.1473-9.60056-14.36347-2.85648-28.88335-3.55977-43.46071-2.70468-14.57872.85512-28.76577,3.78981-42.88025,10.37622Z" style="fill: #000; stroke-width: 0px;"/>
    <path d="M321.81189,336.0835c5.59359-2.21679,11.10874-4.77469,16.79427-6.59176,25.62831-8.1908,51.27954-16.28745,76.9877-24.12074,4.59847-1.40116,9.49142-1.63634,14.27082-2.00082,13.1536-1.00299,26.31925-1.79232,39.98309,1.84821-6.4267,9.63866-12.54093,18.88281-18.78111,28.00728-.4343.63509-1.94984.82699-2.71654.47661-22.50736-10.28592-45.85788-11.08929-69.51509-8.88315-18.83755,1.75669-37.26831,6.00187-55.4251,12.05867-.43386.14473-.93285.01822-1.40142.01822-.06557-.27085-.1311-.54167-.19662-.81252Z" style="fill: #000; stroke-width: 0px;"/>
    <path d="M366.4364,243.79217c-2.68554,8.36716-4.40339,17.29186-9.30701,24.63526-.22.32949-.38566.71291-.55623,1.08425-7.60067,16.54829-18.42062,29.81489-31.0254,41.00089-7.71625,6.84774-16.14288,12.57117-24.09896,19.05787-9.53561,7.77452-19.09278,15.34016-25.88878,27.0662-5.84591,10.08668-6.61503,20.15886-2.35411,30.63775,2.11833,5.20968,5.79044,9.54132,9.2604,15.06781-3.26968-2.95962-6.39865-5.0065-8.65227-7.97659-7.23732-9.53833-12.77112-20.25961-9.40076-33.64923,1.93829-7.70049,5.47881-14.55198,10.81594-20.35316,11.30933-12.29274,24.93229-20.3714,37.45669-30.44049,8.39003-6.74527,16.41522-14.15389,24.36345-21.62105,7.62311-7.16176,13.90743-15.86122,19.19477-25.52232,3.44069-6.28673,6.79084-12.64234,10.19229-18.98721Z" style="fill: #fff; stroke-width: 0px;"/>
    <path d="M217.22209,401.8952c6.32433-5.28831,8.61797-13.55013,11.32653-21.19258,1.56563-4.41765,1.79365-9.57002-.56271-14.25906-.90163-1.79427-1.25639-3.95734-2.01605-5.86622-3.55972-8.94494-9.45354-15.52861-16.12934-21.08348-11.62625-9.67409-23.57713-18.80927-35.1444-28.57777-11.16547-9.42919-20.94005-20.68977-27.92399-34.74275-4.95367-9.96768-9.09872-20.49431-13.58176-30.78535-.20233-.46444-.17777-1.06625-.41453-2.63609,1.83757,3.56278,3.36564,6.17314,4.5942,8.96659,6.31447,14.35769,15.20143,26.41075,25.28306,37.02992,11.78237,12.41062,25.37414,21.98061,38.81126,31.75056,10.06474,7.31795,20.20775,14.78932,27.8149,25.75259,8.86552,12.77683,8.88598,33.79024-1.82972,45.62474-1.9285,2.12984-3.62986,4.55682-5.62757,6.5844-1.36074,1.38111-3.05482,2.30574-4.59986,3.43449Z" style="fill: #fff; stroke-width: 0px;"/>
    <path d="M239.52044,268.9402c3.52046-1.02628,6.16693-1.79778,8.8134-2.56928.1128.47622.22564.95246.33844,1.42871-3.24852-1.39858-4.28508,5.71894-9.15184,1.14058Z" style="fill: #fff; stroke-width: 0px;"/>
  </g>
  <g>
    <path d="M115.993,183.13136l16.56623,24.6816-22.0883,19.34915-14.12624-21.17742c-8.13486,5.38261-17.50954,8.07484-28.12406,8.07484-20.72005,0-36.51576-9.42003-47.38711-28.26195-10.87345-18.83944-16.30939-46.03491-16.30939-81.58639,0-32.80661,5.45787-58.37571,16.3736-76.71102C31.81346,9.16734,47.03127,0,66.55116,0c20.8041,0,36.7063,9.19398,47.70816,27.57635,10.99978,18.38485,16.50202,44.64017,16.50202,78.76782,0,32.40156-4.92435,57.9973-14.76834,76.78719ZM70.78904,167.28638l-15.28202-23.15804,21.83146-19.34915,10.01679,15.23555c1.19807-7.10807,1.79789-18.53473,1.79789-34.28,0-39.71215-7.44838-59.57102-22.34514-59.57102-14.04219,0-21.06094,19.55415-21.06094,58.65688,0,25.19131,1.77596,41.99996,5.32945,50.42968,3.5514,8.4322,8.71066,12.64551,15.47465,12.64551,1.11141,0,2.52403-.20252,4.23787-.60942Z" style="fill: #231f20; stroke-width: 0px;"/>
    <path d="M156.01122,0h53.60062l27.98697,102.92468c5.31483,20.35305,8.93344,37.74118,10.85582,52.16013h.67849c1.69622-12.67447,3.56345-23.08466,5.59891-31.2263L285.94252,0h54.95759l-68.01988,232.88889h-47.66246L156.01122,0Z" style="fill: #231f20; stroke-width: 0px;"/>
    <path d="M366.21979,0h70.64455v162.70667h55.95608v49.0023h-126.60063V0Z" style="fill: #231f20; stroke-width: 0px;"/>
  </g>
</svg>